<svg width="54" height="54" viewBox="0 0 54 54" fill="none" xmlns="http://www.w3.org/2000/svg">
<g clip-path="url(#clip0_640_1420)">
<rect width="54" height="54" rx="12" fill="black"/>
<rect x="10" y="9" width="31" height="33" fill="white"/>
<path d="M43 6H11C8.243 6 6 8.243 6 11V43C6 45.757 8.243 48 11 48H43C45.757 48 48 45.757 48 43V11C48 8.243 45.757 6 43 6ZM39.006 24.323C38.779 24.344 38.549 24.358 38.316 24.358C35.693 24.358 33.388 23.009 32.047 20.97C32.047 26.319 32.047 32.405 32.047 32.507C32.047 37.216 28.229 41.034 23.52 41.034C18.811 41.034 14.993 37.216 14.993 32.507C14.993 27.798 18.811 23.98 23.52 23.98C23.698 23.98 23.872 23.996 24.047 24.007V28.209C23.872 28.188 23.7 28.156 23.52 28.156C21.116 28.156 19.168 30.104 19.168 32.508C19.168 34.912 21.116 36.86 23.52 36.86C25.924 36.86 28.047 34.966 28.047 32.562C28.047 32.467 28.089 12.968 28.089 12.968H32.105C32.483 16.559 35.382 19.393 39.006 19.653V24.323Z" fill="black"/>
</g>
<defs>
<clipPath id="clip0_640_1420">
<rect width="54" height="54" rx="27" fill="white"/>
</clipPath>
</defs>
</svg>
